<svg xmlns="http://www.w3.org/2000/svg" viewBox="0 0 57.9 57.81"><defs><style>.cls-1{fill:#add136;fill-rule:evenodd;}</style></defs><g id="Layer_2" data-name="Layer 2"><g id="Layer_1-2" data-name="Layer 1"><path class="cls-1" d="M56.93,17.4a1,1,0,0,1-1-1h0v-13L45.18,14.23a24.71,24.71,0,0,1,2.3,2.91l0,0c.15.21.28.44.42.66L48,18a26,26,0,1,1-7.31-7.61l-1.38,1.38A24.18,24.18,0,0,0,1.83,31.89c0,.35,0,.69,0,1l12-12a1,1,0,0,1,1.36,0h0L25.53,31.15,54.75,1.93H41.46a1,1,0,0,1,0-1.93H56.93a1,1,0,0,1,1,1h0V16.43a1,1,0,0,1-1,1Z"/></g></g></svg>